<svg aria-hidden="true" style="position:absolute;width:0;height:0;overflow:hidden" xmlns="http://www.w3.org/2000/svg"><defs><symbol id="icon-Ellipse-1" viewBox="0 0 32 32"><path fill="#fff" style="fill:var(--color1, #fff)" d="M32 16c0 8.837-7.163 16-16 16S0 24.837 0 16 7.163 0 16 0s16 7.163 16 16z"/></symbol><symbol id="icon-untitled" viewBox="0 0 43 32"><path fill="#e1e1e1" style="fill:var(--color2, #e1e1e1)" d="M32.014 0c1.929 0 3.75.52 5.464 1.561s3.107 2.537 4.179 4.488C42.686 8 43.2 10.298 43.2 12.943s-.643 5.225-1.929 7.74c-.429.911-1.2 2.081-2.314 3.512a63.368 63.368 0 0 1-3.214 3.707L31.693 32 28.8 27.187a22.03 22.03 0 0 0 5.336-4.683c1.543-1.821 2.314-3.491 2.314-5.008 0-.78-.171-1.409-.514-1.886a8.359 8.359 0 0 1-5.014 1.626c-1.329 0-2.593-.412-3.793-1.236a8.555 8.555 0 0 1-2.957-3.122c-.771-1.258-1.157-2.558-1.157-3.902 0-1.518.45-2.97 1.35-4.358a10.222 10.222 0 0 1 3.407-3.382C29.143.412 30.558 0 32.015 0zM8.936 0c1.929 0 3.75.52 5.464 1.561s3.107 2.537 4.179 4.488c1.029 1.951 1.543 4.249 1.543 6.894 0 1.864-.236 3.534-.707 5.008-.471 1.518-1.286 3.1-2.443 4.748-1.114 1.561-2.164 2.862-3.15 3.902-.986 1.084-2.7 2.884-5.143 5.398l-2.893-4.813a22.03 22.03 0 0 0 5.336-4.683c1.543-1.821 2.314-3.491 2.314-5.008 0-.78-.171-1.409-.514-1.886a8.359 8.359 0 0 1-5.014 1.626c-1.329 0-2.593-.412-3.793-1.236a8.555 8.555 0 0 1-2.957-3.122C.387 11.619.001 10.319.001 8.975c0-1.518.429-2.97 1.286-4.358S3.28 2.102 4.694 1.235C6.065.411 7.48-.001 8.937-.001z"/></symbol><symbol id="icon-Vector-4" viewBox="0 0 35 32"><path fill="#d31342" style="fill:var(--color3, #d31342)" d="M34.472 15.381c.633-.649.572-1.644-.136-2.222L18.735.425c-.708-.578-1.843-.566-2.537.027L.544 13.838c-.693.593-.727 1.587-.075 2.219l.392.381c.651.632 1.704.707 2.349.168l1.17-.977v14.308c0 .878.763 1.588 1.703 1.588h6.102c.94 0 1.703-.711 1.703-1.588v-10.01h7.783v10.01c-.014.877.659 1.588 1.6 1.588h6.467c.94 0 1.703-.711 1.703-1.588V15.831l.722.591c.399.327 1.234.065 1.866-.585l.444-.455z"/></symbol><symbol id="icon-Group" viewBox="0 0 32 32"><path fill="#fea5bb" style="fill:var(--color4, #fea5bb)" d="M16 32c8.837 0 16-7.163 16-16S24.837 0 16 0 0 7.163 0 16s7.163 16 16 16z"/><path fill="#fff" style="fill:var(--color1, #fff)" d="M20.446 15.982h-2.61V25.6h-3.955v-9.618H12v-3.38h1.881v-2.187c0-1.564.739-4.014 3.99-4.014l2.929.012v3.281h-2.125c-.349 0-.839.175-.839.921v1.989h2.955l-.346 3.377z"/></symbol><symbol id="icon-telegram" viewBox="0 0 32 32"><path fill="#fea5bb" style="fill:var(--color4, #fea5bb)" d="M32 16c0 8.837-7.163 16-16 16S0 24.837 0 16 7.163 0 16 0s16 7.163 16 16z"/><path fill="#fff" style="fill:var(--color1, #fff)" d="m12.867 18.375-.318 4.169c.454 0 .651-.182.887-.401l2.13-1.9 4.415 3.017c.81.421 1.38.199 1.599-.695l2.898-12.672.001-.001c.257-1.117-.433-1.554-1.222-1.28L6.225 14.698c-1.162.421-1.145 1.026-.198 1.3l4.355 1.264 10.115-5.907c.476-.294.909-.131.553.163l-8.182 6.857z"/></symbol><symbol id="icon-github" viewBox="0 0 32 32"><path fill="#fea5bb" style="fill:var(--color4, #fea5bb)" d="M32 16c0 8.837-7.163 16-16 16S0 24.837 0 16 7.163 0 16 0s16 7.163 16 16z"/><path fill="#fff" style="fill:var(--color1, #fff)" d="M16 6.588c-5.169 0-9.412 4.242-9.412 9.412 0 4.411 3.095 8.419 7.206 9.412v-3.114a2.307 2.307 0 0 1-1.197-.03c-.556-.164-1.008-.535-1.344-1.1-.214-.361-.593-.752-.988-.723l-.097-1.099c.855-.073 1.595.521 2.034 1.259.195.328.419.52.708.605.278.082.578.043.926-.08.088-.698.407-.959.648-1.326v-.001c-2.451-.366-3.428-1.666-3.816-2.693-.514-1.363-.238-3.066.671-4.142.018-.021.05-.076.037-.114-.417-1.258.091-2.299.11-2.41.481.142.559-.143 2.089.786l.264.159c.111.066.076.028.186.02A8.031 8.031 0 0 1 16 11.131a8.016 8.016 0 0 1 2.002.285l.086.009c-.007-.001.023-.005.075-.036 1.911-1.157 1.842-.779 2.355-.946.019.111.519 1.169.107 2.411-.056.171 1.657 1.739.708 4.256-.388 1.027-1.365 2.328-3.816 2.693v.001c.314.479.692.734.69 1.722v3.887c4.111-.993 7.206-5 7.206-9.412 0-5.169-4.242-9.412-9.412-9.412z"/></symbol><symbol id="icon-Vector-1-1" viewBox="0 0 26 32"><path fill="none" stroke="#d41443" style="stroke:var(--color5, #d41443)" stroke-linejoin="round" stroke-linecap="round" stroke-width="6.4" d="M5.172 3.2 19.341 16 5.172 28.8"/></symbol><symbol id="icon-Vector-1" viewBox="0 0 26 32"><path fill="none" stroke="#fff" style="stroke:var(--color1, #fff)" stroke-linejoin="round" stroke-linecap="round" stroke-width="6.4" d="M5.172 3.2 19.341 16 5.172 28.8"/></symbol><symbol id="icon-logoicek1" viewBox="0 0 32 32"><path d="M12.16.576C5.952 2.496 1.408 7.616.32 13.888-.576 19.52 3.328 27.2 8.512 29.824c2.624 1.408 3.008.512.576-1.408C7.36 27.008 7.04 26.368 7.04 24c0-1.664-.384-3.008-.96-3.52-1.152-.96-1.28-3.456-.128-4.352.448-.384.896-1.664.96-2.816.32-4.224 4.864-8.192 9.408-8.192s9.088 3.968 9.408 8.192c.064 1.152.512 2.432.96 2.816 1.152.896 1.024 3.392-.128 4.352-.576.512-.96 1.856-.96 3.52 0 2.368-.32 3.008-2.048 4.416-2.816 2.176-1.856 2.816 1.216.768 8.512-5.632 9.6-17.088 2.304-24.384C23.104.832 17.024-.896 12.16.576z"/><path d="M12.992 8c-1.152.512-2.112 1.152-2.112 1.536 0 .704 3.456 1.984 5.44 1.984s5.44-1.28 5.44-1.984c0-.768-3.968-2.496-5.568-2.496-.64.064-2.112.448-3.2.96zM9.344 11.968c-.192.256-.384 1.088-.384 1.92 0 1.472.064 1.472 7.36 1.472s7.36 0 7.36-1.472c0-2.176-.576-2.432-2.624-1.408-2.304 1.216-7.168 1.216-9.472 0-1.024-.512-1.984-.704-2.24-.512zM7.488 17.664c-1.024 1.088.704 1.536 5.696 1.536h5.376v2.24c0 1.216.32 2.24.64 2.24.384 0 .64-.96.64-2.176 0-2.112.128-2.24 2.56-2.432 1.408-.128 2.56-.512 2.56-.832 0-.704-16.768-1.28-17.472-.576z"/><path d="M8.96 23.296c0 3.52 1.216 4.224 7.36 4.224s7.36-.704 7.36-4.224c0-1.6-.256-2.176-1.024-2.176-.64 0-.896.384-.704.896.512 1.216-1.28 3.584-2.688 3.584S16 23.68 16 22.208c0-.896-.64-1.088-3.52-1.088H8.96v2.176zM12.928 30.528c.384 2.048 6.912 1.856 6.912-.128 0-.704-.832-.96-3.584-.96-3.008 0-3.52.192-3.328 1.088z"/></symbol><symbol id="icon--2019---IceCream-All-Rights-Reserved" viewBox="0 0 587 32"><path fill="#907e82" style="fill:var(--color6, #907e82)" d="M11.738 23.646c-2.051 0-3.863-.458-5.436-1.374a9.953 9.953 0 0 1-3.674-3.763c-.876-1.613-1.314-3.465-1.314-5.555 0-2.071.438-3.903 1.314-5.495.896-1.613 2.121-2.867 3.674-3.763 1.573-.916 3.385-1.374 5.436-1.374 2.071 0 3.883.458 5.436 1.374a9.417 9.417 0 0 1 3.674 3.763c.876 1.593 1.314 3.425 1.314 5.495 0 2.091-.438 3.942-1.314 5.555a9.67 9.67 0 0 1-3.674 3.763c-1.553.916-3.365 1.374-5.436 1.374zm0-1.404c1.852 0 3.445-.388 4.779-1.165s2.359-1.862 3.076-3.255c.737-1.394 1.105-3.017 1.105-4.868s-.368-3.474-1.105-4.868c-.717-1.394-1.742-2.469-3.076-3.226-1.334-.777-2.927-1.165-4.779-1.165-1.832 0-3.415.388-4.749 1.165-1.334.757-2.369 1.832-3.106 3.226-.717 1.394-1.075 3.017-1.075 4.868s.358 3.474 1.075 4.868c.737 1.394 1.772 2.479 3.106 3.255s2.917 1.165 4.749 1.165zm.029-2.449c-1.235 0-2.35-.269-3.345-.806a6.105 6.105 0 0 1-2.359-2.359c-.558-1.035-.836-2.26-.836-3.674s.279-2.628.836-3.644c.577-1.015 1.364-1.802 2.359-2.359s2.111-.836 3.345-.836c1.533 0 2.857.418 3.972 1.254 1.135.836 1.872 2.001 2.21 3.494h-3.345c-.219-.657-.587-1.165-1.105-1.523-.498-.378-1.105-.567-1.822-.567-.936 0-1.722.348-2.359 1.045-.617.697-.926 1.742-.926 3.136s.309 2.449.926 3.166c.637.697 1.424 1.045 2.359 1.045.757 0 1.374-.189 1.852-.567s.836-.886 1.075-1.523h3.345c-.338 1.434-1.075 2.579-2.21 3.435-1.115.856-2.439 1.284-3.972 1.284zm21.547 3.674v-2.778a215.377 215.377 0 0 0 3.703-3.136 37.18 37.18 0 0 0 3.226-3.076c.956-1.015 1.712-2.001 2.27-2.957.578-.976.866-1.921.866-2.837 0-.856-.239-1.613-.717-2.27-.458-.657-1.225-.986-2.3-.986-1.095 0-1.922.358-2.479 1.075s-.836 1.583-.836 2.598h-3.703c.04-1.533.378-2.807 1.015-3.823.637-1.035 1.483-1.802 2.539-2.3 1.055-.518 2.24-.777 3.554-.777 2.131 0 3.783.587 4.958 1.762 1.195 1.155 1.792 2.658 1.792 4.51 0 1.155-.269 2.28-.806 3.375-.518 1.095-1.205 2.15-2.061 3.166s-1.782 1.971-2.778 2.867a91.947 91.947 0 0 1-2.897 2.449h9.05v3.136H33.314zm26.593.358c-1.931 0-3.584-.448-4.958-1.344-1.374-.916-2.439-2.18-3.196-3.793-.737-1.633-1.105-3.524-1.105-5.675 0-2.13.368-4.012 1.105-5.645.757-1.633 1.822-2.897 3.196-3.793 1.374-.916 3.027-1.374 4.958-1.374s3.584.458 4.958 1.374c1.374.896 2.429 2.16 3.166 3.793.757 1.633 1.135 3.514 1.135 5.645 0 2.15-.378 4.042-1.135 5.675-.737 1.613-1.792 2.877-3.166 3.793-1.374.896-3.027 1.344-4.958 1.344zm0-3.435c1.573 0 2.857-.657 3.853-1.971s1.493-3.116 1.493-5.406c0-2.29-.498-4.092-1.493-5.406s-2.28-1.971-3.853-1.971c-1.593 0-2.887.657-3.883 1.971-.976 1.314-1.463 3.116-1.463 5.406s.488 4.092 1.463 5.406c.996 1.314 2.29 1.971 3.883 1.971zm15.5 3.077V6.921l-3.435.806V4.8l5.047-2.24h2.359v20.907h-3.972zM91.049 2.202c1.573 0 2.897.289 3.972.866s1.941 1.354 2.598 2.33a9.744 9.744 0 0 1 1.404 3.255c.299 1.195.448 2.419.448 3.674 0 2.33-.329 4.361-.986 6.093-.657 1.712-1.603 3.046-2.837 4.002-1.235.936-2.728 1.404-4.48 1.404-1.434 0-2.658-.279-3.674-.836-.996-.578-1.772-1.324-2.33-2.24s-.886-1.901-.986-2.957h3.554c.179.916.567 1.623 1.165 2.121s1.364.747 2.3.747c1.334 0 2.409-.607 3.226-1.822.816-1.235 1.254-3.106 1.314-5.615-.478.816-1.195 1.493-2.15 2.031s-2.021.806-3.196.806c-1.155 0-2.24-.279-3.255-.836s-1.842-1.344-2.479-2.359c-.617-1.015-.926-2.21-.926-3.584a7.08 7.08 0 0 1 .896-3.494 7.14 7.14 0 0 1 2.569-2.598c1.115-.657 2.399-.986 3.853-.986zm.209 3.285c-1.115 0-2.041.348-2.778 1.045-.717.677-1.075 1.543-1.075 2.598 0 1.115.368 2.011 1.105 2.688s1.673 1.015 2.807 1.015c.737 0 1.394-.159 1.971-.478a3.892 3.892 0 0 0 1.404-1.314 3.494 3.494 0 0 0 .508-1.852c0-1.075-.378-1.961-1.135-2.658-.737-.697-1.673-1.045-2.807-1.045zm19.594 10.931v-3.196h12.514v3.196h-12.514zm24.48 7.049V2.56h3.823v20.907h-3.823zm15.64.358c-1.513 0-2.847-.329-4.002-.986s-2.071-1.573-2.748-2.748c-.657-1.175-.986-2.519-.986-4.032s.329-2.857.986-4.032c.677-1.175 1.593-2.091 2.748-2.748s2.489-.986 4.002-.986c1.891 0 3.484.498 4.779 1.493 1.294.976 2.121 2.33 2.479 4.062h-4.032c-.199-.717-.597-1.274-1.195-1.673-.577-.418-1.264-.627-2.061-.627-1.055 0-1.951.398-2.688 1.195s-1.105 1.902-1.105 3.315.368 2.519 1.105 3.315c.737.796 1.633 1.195 2.688 1.195.796 0 1.483-.199 2.061-.597.597-.398.995-.966 1.195-1.702h4.032c-.358 1.673-1.185 3.017-2.479 4.032s-2.887 1.523-4.779 1.523zm18.446 0c-1.493 0-2.817-.319-3.972-.956s-2.061-1.533-2.718-2.688c-.657-1.155-.986-2.489-.986-4.002 0-1.533.319-2.897.956-4.092.657-1.195 1.553-2.121 2.688-2.778 1.155-.677 2.509-1.015 4.062-1.015 1.453 0 2.738.319 3.853.956s1.981 1.513 2.598 2.628c.637 1.095.956 2.32.956 3.674 0 .219-.01.448-.03.687 0 .239-.01.488-.03.747h-11.26c.08 1.155.478 2.061 1.195 2.718.737.657 1.623.986 2.658.986.777 0 1.424-.169 1.941-.508a3.298 3.298 0 0 0 1.195-1.374h3.883a7.079 7.079 0 0 1-1.404 2.569 6.748 6.748 0 0 1-2.389 1.792c-.936.438-2.001.657-3.196.657zm.03-12.424c-.936 0-1.762.269-2.479.806-.717.518-1.175 1.314-1.374 2.389h7.377c-.06-.976-.418-1.752-1.075-2.33s-1.474-.866-2.449-.866zm20.777 12.424c-2.111 0-3.923-.448-5.436-1.344-1.513-.916-2.678-2.18-3.494-3.793-.816-1.633-1.225-3.514-1.225-5.645s.408-4.012 1.225-5.645c.816-1.633 1.981-2.907 3.494-3.823s3.325-1.374 5.436-1.374c2.509 0 4.56.627 6.153 1.882 1.613 1.234 2.618 2.977 3.017 5.227h-4.211c-.259-1.135-.816-2.021-1.673-2.658-.836-.657-1.951-.986-3.345-.986-1.932 0-3.445.657-4.54 1.971s-1.643 3.116-1.643 5.406.547 4.092 1.643 5.406c1.095 1.294 2.608 1.941 4.54 1.941 1.394 0 2.509-.299 3.345-.896.856-.617 1.414-1.463 1.673-2.539h4.211c-.398 2.15-1.404 3.833-3.017 5.047-1.593 1.215-3.644 1.822-6.153 1.822zm13.061-.358V8.653h3.405l.358 2.778a6.124 6.124 0 0 1 2.18-2.27c.936-.577 2.031-.866 3.285-.866v4.032h-1.075c-.836 0-1.583.129-2.24.388s-1.175.707-1.553 1.344c-.358.637-.538 1.523-.538 2.658v6.75h-3.823zm19.374.358c-1.493 0-2.818-.319-3.972-.956s-2.061-1.533-2.718-2.688c-.657-1.155-.986-2.489-.986-4.002 0-1.533.318-2.897.956-4.092.657-1.195 1.553-2.121 2.688-2.778 1.154-.677 2.509-1.015 4.062-1.015 1.453 0 2.737.319 3.853.956s1.982 1.513 2.598 2.628c.638 1.095.956 2.32.956 3.674 0 .219-.011.448-.03.687 0 .239-.011.488-.03.747h-11.26c.079 1.155.478 2.061 1.195 2.718.736.657 1.623.986 2.658.986.777 0 1.423-.169 1.941-.508a3.29 3.29 0 0 0 1.195-1.374h3.883a7.079 7.079 0 0 1-1.404 2.569 6.756 6.756 0 0 1-2.389 1.792c-.937.438-2.001.657-3.196.657zm.03-12.424c-.937 0-1.762.269-2.479.806-.717.518-1.175 1.314-1.374 2.389h7.377c-.06-.976-.418-1.752-1.075-2.33s-1.474-.866-2.449-.866zm16.327 12.424c-1.274 0-2.319-.199-3.136-.597-.817-.418-1.423-.966-1.822-1.643s-.597-1.424-.597-2.24c0-1.374.538-2.489 1.613-3.345s2.688-1.284 4.838-1.284h3.763v-.358c0-1.015-.288-1.762-.866-2.24s-1.295-.717-2.15-.717c-.777 0-1.453.189-2.031.567-.578.358-.937.896-1.075 1.613h-3.733c.1-1.075.459-2.011 1.075-2.807.638-.796 1.453-1.404 2.449-1.822.996-.438 2.11-.657 3.345-.657 2.11 0 3.774.528 4.988 1.583s1.822 2.549 1.822 4.48v9.109h-3.255l-.358-2.389a5.478 5.478 0 0 1-1.852 1.971c-.777.518-1.781.777-3.017.777zm.866-2.987c1.094 0 1.941-.358 2.539-1.075.617-.717 1.005-1.603 1.165-2.658h-3.255c-1.015 0-1.743.189-2.18.567-.437.358-.657.806-.657 1.344 0 .577.22 1.025.657 1.344s1.015.478 1.732.478zm11.861 2.629V8.653h3.375l.329 2.001a5.161 5.161 0 0 1 1.882-1.702c.798-.438 1.713-.657 2.748-.657 2.291 0 3.913.886 4.868 2.658a5.79 5.79 0 0 1 2.15-1.941 6.36 6.36 0 0 1 2.987-.717c1.933 0 3.415.577 4.45 1.732 1.037 1.155 1.553 2.847 1.553 5.077v8.363h-3.823v-8.004c0-1.274-.247-2.25-.747-2.927-.478-.677-1.225-1.015-2.24-1.015-1.035 0-1.871.378-2.509 1.135-.617.757-.926 1.812-.926 3.166v7.646h-3.823v-8.004c0-1.274-.247-2.25-.747-2.927-.497-.677-1.263-1.015-2.3-1.015-1.015 0-1.841.378-2.479 1.135-.617.757-.926 1.812-.926 3.166v7.646h-3.823zm30.212.209c-.698 0-1.276-.219-1.732-.657a2.154 2.154 0 0 1-.657-1.583c0-.637.218-1.175.657-1.613.457-.438 1.035-.657 1.732-.657.695 0 1.263.219 1.702.657.457.438.687.976.687 1.613 0 .617-.23 1.145-.687 1.583-.439.438-1.007.657-1.702.657zm12.589-.209 7.646-20.907h4.301l7.646 20.907h-4.062l-1.673-4.838h-8.154l-1.702 4.838h-4.002zm6.75-7.825h6.063l-3.046-8.691-3.017 8.691zm16.043 7.825V1.963h3.823v21.504h-3.823zm8.326 0V1.963h3.823v21.504h-3.823zm16.13 0V2.56h7.676c1.673 0 3.046.289 4.122.866 1.097.558 1.911 1.324 2.449 2.3.538.956.806 2.021.806 3.196a6.33 6.33 0 0 1-1.015 3.494c-.657 1.055-1.692 1.822-3.106 2.3l4.331 8.751h-4.39l-3.883-8.243h-3.166v8.243h-3.823zm3.823-11.051h3.614c1.276 0 2.21-.309 2.807-.926s.896-1.434.896-2.449c0-.996-.299-1.792-.896-2.389-.576-.597-1.523-.896-2.837-.896h-3.584v6.66zm17.355-6.063c-.698 0-1.274-.209-1.732-.627-.437-.418-.657-.946-.657-1.583s.22-1.155.657-1.553c.459-.418 1.035-.627 1.732-.627s1.265.209 1.702.627c.459.398.687.916.687 1.553s-.228 1.165-.687 1.583c-.437.418-1.005.627-1.702.627zm-1.912 17.114V8.653h3.823v14.814h-3.823zm14.682-4.421c-.717 0-1.382-.08-2.001-.239l-1.105 1.105c.339.179.798.329 1.374.448.578.119 1.515.239 2.807.358 1.971.179 3.405.647 4.301 1.404s1.344 1.802 1.344 3.136c0 .876-.239 1.702-.717 2.479-.478.796-1.214 1.434-2.21 1.911-.994.498-2.27.747-3.823.747-2.11 0-3.812-.398-5.107-1.195-1.293-.777-1.941-1.951-1.941-3.524 0-1.334.649-2.489 1.941-3.465a7.267 7.267 0 0 1-1.045-.567 6.108 6.108 0 0 1-.747-.627v-.687l2.598-2.748c-1.154-1.015-1.732-2.32-1.732-3.913 0-.996.239-1.902.717-2.718.499-.816 1.195-1.463 2.091-1.941s1.982-.717 3.255-.717c.836 0 1.613.119 2.33.358h5.615v2.33l-2.539.179c.399.757.597 1.593.597 2.509 0 .996-.239 1.902-.717 2.718s-1.173 1.463-2.091 1.941c-.896.478-1.961.717-3.196.717zm0-2.927c.777 0 1.414-.209 1.911-.627.518-.418.777-1.015.777-1.792s-.258-1.374-.777-1.792c-.497-.418-1.135-.627-1.911-.627-.815 0-1.472.209-1.971.627-.497.418-.747 1.015-.747 1.792s.25 1.374.747 1.792c.499.418 1.156.627 1.971.627zm-3.584 9.17c0 .737.339 1.284 1.015 1.643.698.378 1.545.567 2.539.567.956 0 1.732-.199 2.33-.597.597-.378.896-.896.896-1.553a1.73 1.73 0 0 0-.597-1.344c-.378-.358-1.143-.578-2.3-.657a23.729 23.729 0 0 1-2.27-.269c-.576.319-.994.667-1.254 1.045a2.155 2.155 0 0 0-.358 1.165zm14.914-1.822V1.963h3.823v8.96a5.261 5.261 0 0 1 2.001-1.911c.855-.478 1.833-.717 2.927-.717 1.833 0 3.245.577 4.241 1.732 1.015 1.155 1.523 2.847 1.523 5.077v8.363h-3.793v-8.004c0-1.274-.258-2.25-.777-2.927-.497-.677-1.295-1.015-2.389-1.015-1.075 0-1.971.378-2.688 1.135-.698.757-1.045 1.812-1.045 3.166v7.646h-3.823zm25.37 0c-1.553 0-2.799-.378-3.733-1.135-.937-.757-1.404-2.101-1.404-4.032v-6.451h-2.539V8.653h2.539l.448-3.972h3.375v3.972h4.002v3.196h-4.002v6.481c0 .717.149 1.215.448 1.493.318.259.855.388 1.613.388h1.852v3.255h-2.598zm12.689.358c-1.314 0-2.468-.209-3.465-.627-.996-.438-1.792-1.035-2.389-1.792s-.956-1.633-1.075-2.628h3.853c.119.577.437 1.075.956 1.493.538.398 1.225.597 2.061.597s1.444-.169 1.822-.508c.399-.338.597-.727.597-1.165 0-.637-.279-1.065-.836-1.284-.557-.239-1.333-.468-2.33-.687-.638-.139-1.284-.309-1.941-.508s-1.265-.448-1.822-.747a4.227 4.227 0 0 1-1.314-1.195c-.339-.498-.508-1.105-.508-1.822 0-1.314.518-2.419 1.553-3.315 1.056-.896 2.528-1.344 4.42-1.344 1.751 0 3.147.408 4.181 1.225 1.056.816 1.683 1.941 1.882 3.375h-3.614c-.22-1.095-1.045-1.643-2.479-1.643-.717 0-1.274.139-1.673.418-.378.279-.567.627-.567 1.045 0 .438.288.787.866 1.045s1.344.498 2.3.717c1.035.239 1.982.508 2.837.806.877.279 1.572.707 2.091 1.284.518.558.777 1.364.777 2.419.019.916-.22 1.742-.717 2.479s-1.214 1.314-2.15 1.732-2.042.627-3.315.627zm17.971-.358V2.56h7.676c1.673 0 3.046.289 4.122.866 1.094.558 1.911 1.324 2.449 2.3.538.956.806 2.021.806 3.196a6.346 6.346 0 0 1-1.015 3.494c-.657 1.055-1.694 1.822-3.106 2.3l4.331 8.751h-4.39l-3.883-8.243h-3.166v8.243h-3.823zm3.823-11.051h3.614c1.274 0 2.21-.309 2.807-.926s.896-1.434.896-2.449c0-.996-.299-1.792-.896-2.389-.578-.597-1.523-.896-2.837-.896h-3.584v6.66zm21.585 11.409c-1.493 0-2.816-.319-3.972-.956-1.154-.637-2.061-1.533-2.718-2.688s-.986-2.489-.986-4.002c0-1.533.32-2.897.956-4.092.657-1.195 1.553-2.121 2.688-2.778 1.156-.677 2.509-1.015 4.062-1.015 1.455 0 2.739.319 3.853.956a6.711 6.711 0 0 1 2.598 2.628c.638 1.095.956 2.32.956 3.674 0 .219-.009.448-.03.687 0 .239-.009.488-.03.747h-11.26c.081 1.155.478 2.061 1.195 2.718.738.657 1.623.986 2.658.986.777 0 1.425-.169 1.941-.508a3.29 3.29 0 0 0 1.195-1.374h3.883a7.05 7.05 0 0 1-1.404 2.569c-.636.757-1.434 1.354-2.389 1.792-.934.438-2.001.657-3.196.657zm.03-12.424c-.934 0-1.762.269-2.479.806-.717.518-1.173 1.314-1.374 2.389h7.377c-.06-.976-.418-1.752-1.075-2.33s-1.472-.866-2.449-.866zm17.344 12.424c-1.314 0-2.47-.209-3.465-.627-.996-.438-1.792-1.035-2.389-1.792s-.956-1.633-1.075-2.628h3.853c.119.577.437 1.075.956 1.493.538.398 1.225.597 2.061.597s1.442-.169 1.822-.508c.397-.338.597-.727.597-1.165 0-.637-.279-1.065-.836-1.284-.559-.239-1.335-.468-2.33-.687-.638-.139-1.284-.309-1.941-.508s-1.265-.448-1.822-.747a4.205 4.205 0 0 1-1.314-1.195c-.339-.498-.508-1.105-.508-1.822 0-1.314.516-2.419 1.553-3.315 1.054-.896 2.528-1.344 4.42-1.344 1.751 0 3.145.408 4.181 1.225 1.054.816 1.681 1.941 1.882 3.375h-3.614c-.22-1.095-1.045-1.643-2.479-1.643-.717 0-1.276.139-1.673.418-.38.279-.567.627-.567 1.045 0 .438.288.787.866 1.045.576.259 1.344.498 2.3.717 1.035.239 1.98.508 2.837.806.875.279 1.572.707 2.091 1.284.516.558.777 1.364.777 2.419a4.172 4.172 0 0 1-.717 2.479c-.499.737-1.216 1.314-2.15 1.732-.937.418-2.042.627-3.315.627zm17.363 0c-1.493 0-2.818-.319-3.972-.956s-2.061-1.533-2.718-2.688c-.657-1.155-.986-2.489-.986-4.002 0-1.533.318-2.897.956-4.092.657-1.195 1.553-2.121 2.688-2.778 1.154-.677 2.509-1.015 4.062-1.015 1.453 0 2.737.319 3.853.956s1.982 1.513 2.598 2.628c.638 1.095.956 2.32.956 3.674 0 .219-.011.448-.03.687 0 .239-.011.488-.03.747h-11.26c.079 1.155.478 2.061 1.195 2.718.736.657 1.623.986 2.658.986.777 0 1.423-.169 1.941-.508a3.29 3.29 0 0 0 1.195-1.374h3.883a7.079 7.079 0 0 1-1.404 2.569 6.756 6.756 0 0 1-2.389 1.792c-.937.438-2.001.657-3.196.657zm.03-12.424c-.937 0-1.762.269-2.479.806-.717.518-1.175 1.314-1.374 2.389h7.377c-.06-.976-.418-1.752-1.075-2.33s-1.474-.866-2.449-.866zm11.219 12.066V8.653h3.405l.358 2.778a6.132 6.132 0 0 1 2.18-2.27c.937-.577 2.031-.866 3.285-.866v4.032h-1.075c-.836 0-1.583.129-2.24.388s-1.173.707-1.553 1.344c-.358.637-.538 1.523-.538 2.658v6.75h-3.823zm16.442 0-5.436-14.814h4.002l3.763 11.2 3.763-11.2h4.002l-5.466 14.814h-4.629zm19.573.358c-1.493 0-2.818-.319-3.972-.956-1.156-.637-2.061-1.533-2.718-2.688s-.986-2.489-.986-4.002c0-1.533.318-2.897.956-4.092.657-1.195 1.553-2.121 2.688-2.778 1.154-.677 2.509-1.015 4.062-1.015 1.453 0 2.737.319 3.853.956a6.738 6.738 0 0 1 2.598 2.628c.636 1.095.956 2.32.956 3.674 0 .219-.011.448-.03.687 0 .239-.011.488-.03.747h-11.26c.079 1.155.478 2.061 1.195 2.718.736.657 1.621.986 2.658.986.777 0 1.423-.169 1.941-.508a3.312 3.312 0 0 0 1.195-1.374h3.883a7.079 7.079 0 0 1-1.404 2.569 6.756 6.756 0 0 1-2.389 1.792c-.937.438-2.001.657-3.196.657zm.03-12.424c-.937 0-1.762.269-2.479.806-.717.518-1.175 1.314-1.374 2.389h7.377c-.06-.976-.418-1.752-1.075-2.33s-1.474-.866-2.449-.866zm18.029 12.424c-1.395 0-2.639-.339-3.733-1.015-1.097-.677-1.963-1.603-2.598-2.778-.638-1.175-.956-2.509-.956-4.002s.318-2.817.956-3.972c.636-1.175 1.502-2.091 2.598-2.748 1.094-.677 2.338-1.015 3.733-1.015 1.114 0 2.091.209 2.927.627s1.513 1.005 2.031 1.762V1.963h3.823v21.504h-3.405l-.418-2.121c-.478.657-1.116 1.235-1.911 1.732-.777.498-1.792.747-3.046.747zm.806-3.345c1.233 0 2.24-.408 3.017-1.225.796-.836 1.195-1.901 1.195-3.196s-.399-2.349-1.195-3.166c-.777-.836-1.783-1.254-3.017-1.254-1.216 0-2.221.408-3.017 1.225-.798.816-1.195 1.872-1.195 3.166s.397 2.359 1.195 3.196c.796.836 1.801 1.254 3.017 1.254zm14.108 3.196c-.698 0-1.276-.219-1.732-.657a2.154 2.154 0 0 1-.657-1.583c0-.637.218-1.175.657-1.613.457-.438 1.035-.657 1.732-.657.695 0 1.263.219 1.702.657.457.438.687.976.687 1.613 0 .617-.23 1.145-.687 1.583-.439.438-1.007.657-1.702.657z"/></symbol></defs></svg>